{
    "accessors" : [
        {
            "bufferView" : 0,
            "componentType" : 5126,
            "count" : 729,
            "max" : [
                1.4541106224060059,
                8.657510757446289,
                1.201974630355835
            ],
            "min" : [
                -0.9651505947113037,
                -0.943321943283081,
                -0.9651505947113037
            ],
            "type" : "VEC3"
        },
        {
            "bufferView" : 1,
            "componentType" : 5126,
            "count" : 729,
            "type" : "VEC3"
        },
        {
            "bufferView" : 2,
            "componentType" : 5126,
            "count" : 729,
            "type" : "VEC2"
        },
        {
            "bufferView" : 3,
            "componentType" : 5123,
            "count" : 2100,
            "type" : "SCALAR"
        },
        {
            "bufferView" : 4,
            "componentType" : 5126,
            "count" : 144,
            "max" : [
                1.0075671672821045,
                0.058639660477638245,
                1.0006086826324463
            ],
            "min" : [
                -1.0075671672821045,
                -0.1076059639453888,
                -1.0006086826324463
            ],
            "type" : "VEC3"
        },
        {
            "bufferView" : 5,
            "componentType" : 5126,
            "count" : 144,
            "type" : "VEC3"
        },
        {
            "bufferView" : 6,
            "componentType" : 5126,
            "count" : 144,
            "type" : "VEC2"
        },
        {
            "bufferView" : 7,
            "componentType" : 5123,
            "count" : 360,
            "type" : "SCALAR"
        },
        {
            "bufferView" : 8,
            "componentType" : 5126,
            "count" : 530,
            "max" : [
                1,
                1.2798962593078613,
                1.0883468389511108
            ],
            "min" : [
                -1,
                -1.3441797494888306,
                -1.0883468389511108
            ],
            "type" : "VEC3"
        },
        {
            "bufferView" : 9,
            "componentType" : 5126,
            "count" : 530,
            "type" : "VEC3"
        },
        {
            "bufferView" : 10,
            "componentType" : 5126,
            "count" : 530,
            "type" : "VEC2"
        },
        {
            "bufferView" : 11,
            "componentType" : 5123,
            "count" : 1056,
            "type" : "SCALAR"
        }
    ],
    "asset" : {
        "generator" : "Khronos Blender glTF 2.0 I/O",
        "version" : "2.0"
    },
    "bufferViews" : [
        {
            "buffer" : 0,
            "byteLength" : 8748,
            "byteOffset" : 0
        },
        {
            "buffer" : 0,
            "byteLength" : 8748,
            "byteOffset" : 8748
        },
        {
            "buffer" : 0,
            "byteLength" : 5832,
            "byteOffset" : 17496
        },
        {
            "buffer" : 0,
            "byteLength" : 4200,
            "byteOffset" : 23328
        },
        {
            "buffer" : 0,
            "byteLength" : 1728,
            "byteOffset" : 27528
        },
        {
            "buffer" : 0,
            "byteLength" : 1728,
            "byteOffset" : 29256
        },
        {
            "buffer" : 0,
            "byteLength" : 1152,
            "byteOffset" : 30984
        },
        {
            "buffer" : 0,
            "byteLength" : 720,
            "byteOffset" : 32136
        },
        {
            "buffer" : 0,
            "byteLength" : 6360,
            "byteOffset" : 32856
        },
        {
            "buffer" : 0,
            "byteLength" : 6360,
            "byteOffset" : 39216
        },
        {
            "buffer" : 0,
            "byteLength" : 4240,
            "byteOffset" : 45576
        },
        {
            "buffer" : 0,
            "byteLength" : 2112,
            "byteOffset" : 49816
        }
    ],
    "buffers" : [
        {
            "byteLength" : 51928,
            "uri" : "hexelr.sturdy.bin"
        }
    ],
    "extensions" : {},
    "images" : [
        {
            "mimeType" : "image/png",
            "name" : "Nozzle Base Color",
            "uri" : "Nozzle Base Color.png"
        },
        {
            "mimeType" : "image/png",
            "name" : "Nozzle Metallic",
            "uri" : "Nozzle MetallicNozzle Roughness.png"
        }
    ],
    "materials" : [
        {
            "name" : "materials/mat_test.toml",
            "pbrMetallicRoughness" : {
                "baseColorTexture" : {
                    "index" : 0,
                    "texCoord" : 0
                },
                "metallicRoughnessTexture" : {
                    "index" : 1,
                    "texCoord" : 0
                }
            }
        },
        {
            "name" : "materials/mat_test.toml",
            "pbrMetallicRoughness" : {
                "baseColorFactor" : [
                    0.008861763402819633,
                    0.008387676440179348,
                    0.012216866947710514,
                    1
                ],
                "metallicFactor" : 1,
                "roughnessFactor" : 0.8109244108200073
            }
        },
        {
            "name" : "materials/mat_test.toml",
            "pbrMetallicRoughness" : {
                "baseColorFactor" : [
                    0,
                    0,
                    0,
                    1
                ],
                "metallicFactor" : 0.756302535533905,
                "roughnessFactor" : 0.5378150939941406
            }
        }
    ],
    "meshes" : [
        {
            "name" : "materials/mat_test.toml",
            "primitives" : [
                {
                    "attributes" : {
                        "NORMAL" : 1,
                        "POSITION" : 0,
                        "TEXCOORD_0" : 2
                    },
                    "indices" : 3,
                    "material" : 0
                }
            ]
        },
        {
            "name" : "materials/mat_test.toml",
            "primitives" : [
                {
                    "attributes" : {
                        "NORMAL" : 5,
                        "POSITION" : 4,
                        "TEXCOORD_0" : 6
                    },
                    "indices" : 7,
                    "material" : 1
                }
            ]
        },
        {
            "name" : "materials/mat_test.toml",
            "primitives" : [
                {
                    "attributes" : {
                        "NORMAL" : 9,
                        "POSITION" : 8,
                        "TEXCOORD_0" : 10
                    },
                    "indices" : 11,
                    "material" : 2
                }
            ]
        }
    ],
    "nodes" : [
        {
            "extras" : {
                "shape" : "cylinder"
            },
            "name" : "col_LargeCylinder",
            "rotation" : [
                0,
                0.7071068286895752,
                -0.7071068286895752,
                -1.1520234011186403e-07
            ],
            "scale" : [
                0.32541102170944214,
                0.42099887132644653,
                0.32541102170944214
            ],
            "translation" : [
                0,
                0,
                0.43989989161491394
            ]
        },
        {
            "extras" : {
                "shape" : "cylinder"
            },
            "name" : "col_SmallCylinder",
            "rotation" : [
                0,
                0.7071068286895752,
                -0.7071068286895752,
                -1.1520234011186403e-07
            ],
            "scale" : [
                0.0944858267903328,
                0.4033913314342499,
                0.0944858267903328
            ],
            "translation" : [
                0,
                0.1866299957036972,
                -0.31580981612205505
            ]
        },
        {
            "extras" : {
                "shape" : "cylinder"
            },
            "name" : "col_SmallCylinder.001",
            "rotation" : [
                0,
                -0.7071068286895752,
                -0.7071068286895752,
                1.1520234011186403e-07
            ],
            "scale" : [
                0.0944858267903328,
                0.4033913314342499,
                0.0944858267903328
            ],
            "translation" : [
                0,
                -0.1866299957036972,
                -0.31580981612205505
            ]
        },
        {
            "extras" : {
                "shape" : "cylinder"
            },
            "name" : "col_SmallCylinder.002",
            "rotation" : [
                0,
                0.7071068286895752,
                -0.7071068286895752,
                -1.1520234011186403e-07
            ],
            "scale" : [
                0.0944858267903328,
                0.4033913314342499,
                0.0944858267903328
            ],
            "translation" : [
                -0.10978203266859055,
                0,
                -0.31580981612205505
            ]
        },
        {
            "extras" : {
                "shape" : "cylinder"
            },
            "name" : "col_SmallCylinder.003",
            "rotation" : [
                0,
                0.7071068286895752,
                -0.7071068286895752,
                -1.1520234011186403e-07
            ],
            "scale" : [
                0.0944858267903328,
                0.4033913314342499,
                0.0944858267903328
            ],
            "translation" : [
                0.10978197306394577,
                0,
                -0.31580981612205505
            ]
        },
        {
            "mesh" : 0,
            "name" : "Nozzle0",
            "rotation" : [
                0.5,
                -0.4999999701976776,
                -0.4999999701976776,
                0.5
            ],
            "scale" : [
                0.1097821593284607,
                0.1097821593284607,
                0.1097821593284607
            ],
            "translation" : [
                -0.1097821369767189,
                0,
                -0.6135883331298828
            ]
        },
        {
            "mesh" : 0,
            "name" : "Nozzle1",
            "rotation" : [
                0.5000000596046448,
                0.5,
                0.5,
                0.5000000596046448
            ],
            "scale" : [
                0.1097821593284607,
                0.1097821593284607,
                0.1097821593284607
            ],
            "translation" : [
                0.10978204756975174,
                0,
                -0.6135883331298828
            ]
        },
        {
            "mesh" : 0,
            "name" : "Nozzle2",
            "rotation" : [
                0.7071068286895752,
                0,
                0,
                0.7071068286895752
            ],
            "scale" : [
                0.1097821593284607,
                0.1097821593284607,
                0.1097821593284607
            ],
            "translation" : [
                0,
                -0.18662965297698975,
                -0.6135883331298828
            ]
        },
        {
            "mesh" : 0,
            "name" : "Nozzle3",
            "rotation" : [
                0,
                -0.7071068286895752,
                -0.7071068286895752,
                1.1520234721729139e-07
            ],
            "scale" : [
                0.1097821593284607,
                0.1097821593284607,
                0.1097821593284607
            ],
            "translation" : [
                0,
                0.1866297721862793,
                -0.6135883331298828
            ]
        },
        {
            "mesh" : 1,
            "name" : "Strap",
            "rotation" : [
                0,
                -0.7071068286895752,
                -0.7071068286895752,
                1.1520234011186403e-07
            ],
            "scale" : [
                0.20950163900852203,
                0.3265725374221802,
                0.2896464467048645
            ],
            "translation" : [
                0,
                0,
                -0.6114104390144348
            ]
        },
        {
            "mesh" : 2,
            "name" : "TopCylinder",
            "rotation" : [
                0,
                -0.7071068286895752,
                -0.7071068286895752,
                1.1520234011186403e-07
            ],
            "scale" : [
                0.33150625228881836,
                0.33150625228881836,
                0.33150625228881836
            ],
            "translation" : [
                0,
                0,
                0.4292989671230316
            ]
        },
        {
            "children" : [
                0,
                1,
                2,
                3,
                4,
                5,
                6,
                7,
                8,
                9,
                10
            ],
            "extras" : {
                "country" : "Canarda",
                "description" : "A slightly primitive rocket design with 4 combustion chambers. Made for propelling aircraft to supersonic speeds.",
                "machines" : [
                    {
                        "baseEfficiency" : 300,
                        "baseThrust" : 1000,
                        "efficiency" : {
                            "pressure" : [
                                100,
                                50
                            ]
                        },
                        "loopTimePeriod" : 0,
                        "maxHeat" : 1770,
                        "maxPressure" : 200000,
                        "maxSignificantProximity" : 1,
                        "thrust" : {
                            "acceleration" : [
                                100
                            ],
                            "dotAcceleration" : [
                                100
                            ],
                            "mach" : [
                                100
                            ],
                            "pressure" : [
                                100,
                                0
                            ],
                            "proximity" : [
                                140,
                                100
                            ],
                            "throttle" : [
                                0,
                                4,
                                80,
                                100
                            ],
                            "time" : [
                                100
                            ]
                        },
                        "timePeriod" : 2,
                        "type" : "Rocket"
                    }
                ],
                "manufacturer" : "Gotzietek",
                "massdry" : 95,
                "name" : "Hexelr-11"
            },
            "name" : "part_hexelr"
        }
    ],
    "scene" : 0,
    "scenes" : [
        {
            "name" : "Scene",
            "nodes" : [
                11
            ]
        }
    ],
    "textures" : [
        {
            "source" : 0
        },
        {
            "source" : 1
        }
    ]
}
